<svg width="44" height="44" viewBox="0 0 44 44" fill="none" xmlns="http://www.w3.org/2000/svg">
<path d="M7.20304 15.9996C7.27278 15.9996 7.34042 15.9758 7.39477 15.9321L15.3423 9.54261C15.5426 9.38163 15.8401 9.52417 15.8401 9.7811V35.9324C15.8401 36.1893 15.5426 36.3319 15.3423 36.1709L7.39477 29.7814C7.34042 29.7377 7.27278 29.7139 7.20304 29.7139H0.306001C0.137001 29.7139 0 29.5769 0 29.4079V16.3056C0 16.1366 0.137001 15.9996 0.306 15.9996H7.20304Z" fill="white"/>
<path fill-rule="evenodd" clip-rule="evenodd" d="M27.0709 38.6638C35.654 29.127 36.1455 16.3186 27.5325 5.79159L29.4674 4.2085C38.8545 15.6815 38.3459 29.8731 28.9291 40.3362L27.0709 38.6638Z" fill="white"/>
<path fill-rule="evenodd" clip-rule="evenodd" d="M25.6254 22.8412C25.7428 18.4989 24.3337 14.1015 21.1161 10.8839L22.8839 9.11609C26.6662 12.8985 28.2572 18.0011 28.1245 22.9087C27.9922 27.8034 26.1431 32.6246 22.8839 35.8839L21.1161 34.1161C23.8568 31.3753 25.5077 27.1965 25.6254 22.8412Z" fill="white"/>
</svg>
