<svg width="45" height="46" viewBox="0 0 45 46" fill="none" xmlns="http://www.w3.org/2000/svg">
<path d="M7.20304 16.9996C7.27278 16.9996 7.34042 16.9758 7.39477 16.9321L15.3423 10.5426C15.5426 10.3816 15.8401 10.5242 15.8401 10.7811V36.9324C15.8401 37.1893 15.5426 37.3319 15.3423 37.1709L7.39477 30.7814C7.34042 30.7377 7.27278 30.7139 7.20304 30.7139H0.306001C0.137001 30.7139 0 30.5769 0 30.4079V17.3056C0 17.1366 0.137001 16.9996 0.306 16.9996H7.20304Z" fill="white"/>
<path fill-rule="evenodd" clip-rule="evenodd" d="M27.0709 39.6638C35.654 30.127 36.1455 17.3186 27.5325 6.79159L29.4674 5.2085C38.8545 16.6815 38.3459 30.8731 28.9291 41.3362L27.0709 39.6638Z" fill="white"/>
<path fill-rule="evenodd" clip-rule="evenodd" d="M34.0785 44.1554C44.6101 32.6665 44.6914 15.3578 34.0171 1.77234L35.9829 0.227783C47.3086 14.6423 47.3899 33.3336 35.9214 45.8447L34.0785 44.1554Z" fill="white"/>
<path fill-rule="evenodd" clip-rule="evenodd" d="M25.6254 23.8412C25.7428 19.4989 24.3337 15.1015 21.1161 11.8839L22.8839 10.1161C26.6662 13.8985 28.2572 19.0011 28.1245 23.9087C27.9922 28.8034 26.1431 33.6246 22.8839 36.8839L21.1161 35.1161C23.8568 32.3753 25.5077 28.1965 25.6254 23.8412Z" fill="white"/>
</svg>
