<svg width="30" height="30" viewBox="0 0 30 30" fill="none" xmlns="http://www.w3.org/2000/svg">
<path fill-rule="evenodd" clip-rule="evenodd" d="M13.6606 0C13.4799 0 13.3333 0.146525 13.3333 0.327272V13.3333H0.327273C0.146525 13.3333 0 13.4799 0 13.6606V16.3394C0 16.5201 0.146525 16.6667 0.327272 16.6667H13.3333V29.6727C13.3333 29.8535 13.4799 30 13.6606 30H16.3394C16.5201 30 16.6667 29.8535 16.6667 29.6727V16.6667H29.6727C29.8535 16.6667 30 16.5201 30 16.3394V13.6606C30 13.4799 29.8535 13.3333 29.6727 13.3333H16.6667V0.327273C16.6667 0.146525 16.5201 0 16.3394 0H13.6606Z" fill="white"/>
</svg>
